<?xml version="1.0" encoding="UTF-8"?><!DOCTYPE svg PUBLIC "-//W3C//DTD SVG 1.1//EN" "http://www.w3.org/Graphics/SVG/1.1/DTD/svg11.dtd"><svg xmlns="http://www.w3.org/2000/svg" xmlns:xlink="http://www.w3.org/1999/xlink" version="1.1" id="Eye_with_line" x="0px" y="0px" viewBox="0 0 20 20" xml:space="preserve"><path d="M18.521 1.478a1 1 0 0 0-1.414 0L1.48 17.107a1 1 0 1 0 1.414 1.414L18.52 2.892a1 1 0 0 0 0-1.414zM3.108 13.498l2.56-2.56A4.18 4.18 0 0 1 5.555 10c0-2.379 1.99-4.309 4.445-4.309.286 0 .564.032.835.082l1.203-1.202A12.645 12.645 0 0 0 10 4.401C3.44 4.4 0 9.231 0 10c0 .423 1.057 2.09 3.108 3.497zm13.787-6.993l-2.562 2.56c.069.302.111.613.111.935 0 2.379-1.989 4.307-4.444 4.307-.284 0-.56-.032-.829-.081l-1.204 1.203c.642.104 1.316.17 2.033.17 6.56 0 10-4.833 10-5.599 0-.424-1.056-2.09-3.105-3.495z"/><metadata><rdf:RDF xmlns:rdf="http://www.w3.org/1999/02/22-rdf-syntax-ns#" xmlns:rdfs="http://www.w3.org/2000/01/rdf-schema#" xmlns:dc="http://purl.org/dc/elements/1.1/"><rdf:Description about="https://iconscout.com/legal#licenses" dc:title="eye,with,line" dc:description="eye,with,line" dc:publisher="Iconscout" dc:date="2017-09-14" dc:format="image/svg+xml" dc:language="en"><dc:creator><rdf:Bag><rdf:li>Daniel Bruce</rdf:li></rdf:Bag></dc:creator></rdf:Description></rdf:RDF></metadata></svg>