<?xml version="1.0" encoding="UTF-8"?><!DOCTYPE svg PUBLIC "-//W3C//DTD SVG 1.1//EN" "http://www.w3.org/Graphics/SVG/1.1/DTD/svg11.dtd"><svg xmlns="http://www.w3.org/2000/svg" xmlns:xlink="http://www.w3.org/1999/xlink" version="1.1" id="Layer_1" x="0px" y="0px" width="48px" height="48px" viewBox="0 0 48 48" xml:space="preserve" fill="#000"><path d="M24 39C6 39 0 24 0 24S6 9 24 9s24 15 24 15-6 15-24 15zm0-24c-4.971 0-9 4.029-9 9s4.029 9 9 9 9-4.029 9-9-4.029-9-9-9zm0 15c-3.312 0-6-2.688-6-6h6l-4.242-4.242A5.97 5.97 0 0 1 24 18c3.312 0 6 2.688 6 6s-2.688 6-6 6z"/><metadata><rdf:RDF xmlns:rdf="http://www.w3.org/1999/02/22-rdf-syntax-ns#" xmlns:rdfs="http://www.w3.org/2000/01/rdf-schema#" xmlns:dc="http://purl.org/dc/elements/1.1/"><rdf:Description about="https://iconscout.com/legal#licenses" dc:title="eye" dc:description="eye" dc:publisher="Iconscout" dc:date="2017-09-24" dc:format="image/svg+xml" dc:language="en"><dc:creator><rdf:Bag><rdf:li>Adam</rdf:li></rdf:Bag></dc:creator></rdf:Description></rdf:RDF></metadata></svg>